<?xml version="1.0" encoding="UTF-8"?>
<svg xmlns="http://www.w3.org/2000/svg" xmlns:xlink="http://www.w3.org/1999/xlink" width="16pt" height="16pt" viewBox="0 0 16 16" version="1.1">
<g id="surface55152">
<path style=" stroke:none;fill-rule:nonzero;fill:rgb(0%,0%,0%);fill-opacity:1;" d="M 0 8 C 0 3.582031 3.582031 0 8 0 C 12.417969 0 16 3.582031 16 8 C 16 12.417969 12.417969 16 8 16 C 3.582031 16 0 12.417969 0 8 Z M 8 15.679688 C 12.242188 15.679688 15.679688 12.242188 15.679688 8 C 15.679688 3.757812 12.242188 0.320312 8 0.320312 C 3.757812 0.320312 0.320312 3.757812 0.320312 8 C 0.320312 12.242188 3.757812 15.679688 8 15.679688 Z M 8 15.679688 "/>
<path style=" stroke:none;fill-rule:nonzero;fill:rgb(72.941176%,87.843137%,74.117647%);fill-opacity:1;" d="M 3.246094 12.085938 C 2.957031 12.085938 2.726562 11.851562 2.726562 11.566406 L 2.726562 4.433594 C 2.726562 4.148438 2.957031 3.914062 3.246094 3.914062 L 12.753906 3.914062 C 13.042969 3.914062 13.273438 4.148438 13.273438 4.433594 L 13.273438 11.566406 C 13.273438 11.851562 13.042969 12.085938 12.753906 12.085938 Z M 3.246094 12.085938 "/>
<path style=" stroke:none;fill-rule:nonzero;fill:rgb(36.862745%,61.176471%,46.27451%);fill-opacity:1;" d="M 12.753906 3.988281 C 13 3.988281 13.199219 4.1875 13.199219 4.433594 L 13.199219 11.566406 C 13.199219 11.8125 13 12.011719 12.753906 12.011719 L 3.246094 12.011719 C 3 12.011719 2.800781 11.8125 2.800781 11.566406 L 2.800781 4.433594 C 2.800781 4.1875 3 3.988281 3.246094 3.988281 L 12.753906 3.988281 M 12.753906 3.839844 L 3.246094 3.839844 C 2.917969 3.839844 2.652344 4.105469 2.652344 4.433594 L 2.652344 11.566406 C 2.652344 11.894531 2.917969 12.160156 3.246094 12.160156 L 12.753906 12.160156 C 13.082031 12.160156 13.347656 11.894531 13.347656 11.566406 L 13.347656 4.433594 C 13.347656 4.105469 13.082031 3.839844 12.753906 3.839844 Z M 12.753906 3.839844 "/>
<path style=" stroke:none;fill-rule:nonzero;fill:rgb(26.666667%,50.980392%,36.470588%);fill-opacity:1;" d="M 5.960938 8.777344 L 5.84375 9.371094 L 5.355469 9.371094 L 5.917969 6.769531 L 6.523438 6.769531 L 7.03125 9.371094 L 6.539062 9.371094 L 6.429688 8.777344 Z M 6.382812 8.382812 L 6.296875 7.839844 C 6.269531 7.679688 6.234375 7.417969 6.210938 7.246094 L 6.199219 7.246094 C 6.171875 7.421875 6.136719 7.6875 6.109375 7.839844 L 6.011719 8.382812 Z M 7.355469 8.855469 C 7.460938 8.914062 7.640625 8.957031 7.785156 8.957031 C 8.019531 8.957031 8.140625 8.832031 8.140625 8.660156 C 8.140625 8.472656 8.023438 8.378906 7.804688 8.238281 C 7.449219 8.019531 7.3125 7.746094 7.3125 7.511719 C 7.3125 7.09375 7.589844 6.746094 8.132812 6.746094 C 8.304688 6.746094 8.46875 6.792969 8.542969 6.839844 L 8.460938 7.273438 C 8.386719 7.230469 8.273438 7.1875 8.132812 7.1875 C 7.914062 7.1875 7.8125 7.316406 7.8125 7.457031 C 7.8125 7.609375 7.890625 7.691406 8.167969 7.863281 C 8.515625 8.070312 8.636719 8.332031 8.636719 8.609375 C 8.636719 9.082031 8.285156 9.394531 7.78125 9.394531 C 7.570312 9.394531 7.371094 9.339844 7.28125 9.292969 Z M 9.03125 6.808594 C 9.175781 6.777344 9.367188 6.757812 9.5625 6.757812 C 9.863281 6.757812 10.101562 6.800781 10.269531 6.957031 C 10.421875 7.09375 10.492188 7.308594 10.492188 7.53125 C 10.492188 7.8125 10.40625 8.011719 10.273438 8.15625 C 10.109375 8.328125 9.851562 8.40625 9.636719 8.40625 C 9.605469 8.40625 9.574219 8.40625 9.539062 8.402344 L 9.539062 9.371094 L 9.03125 9.371094 Z M 9.539062 7.992188 C 9.566406 7.996094 9.59375 7.996094 9.625 7.996094 C 9.878906 7.996094 9.992188 7.816406 9.992188 7.574219 C 9.992188 7.34375 9.898438 7.167969 9.660156 7.167969 C 9.617188 7.167969 9.570312 7.175781 9.539062 7.1875 Z M 9.539062 7.992188 "/>
<path style=" stroke:none;fill-rule:nonzero;fill:rgb(100%,19.215686%,37.254902%);fill-opacity:1;" d="M 5.230469 3.265625 L 5.136719 2.992188 L 4.660156 2.992188 L 4.570312 3.265625 L 4.28125 3.265625 L 4.773438 1.941406 L 5.023438 1.941406 L 5.519531 3.265625 Z M 4.898438 2.277344 L 4.734375 2.773438 L 5.066406 2.773438 Z M 6.328125 2.917969 C 6.328125 2.867188 6.308594 2.828125 6.273438 2.800781 C 6.238281 2.773438 6.171875 2.742188 6.078125 2.714844 C 5.984375 2.683594 5.910156 2.652344 5.851562 2.621094 C 5.703125 2.542969 5.628906 2.433594 5.628906 2.292969 C 5.628906 2.222656 5.648438 2.160156 5.6875 2.101562 C 5.730469 2.046875 5.785156 2.003906 5.863281 1.972656 C 5.9375 1.941406 6.023438 1.925781 6.117188 1.925781 C 6.210938 1.925781 6.296875 1.941406 6.367188 1.976562 C 6.441406 2.011719 6.5 2.058594 6.539062 2.121094 C 6.582031 2.183594 6.601562 2.253906 6.601562 2.332031 L 6.328125 2.332031 C 6.328125 2.273438 6.308594 2.226562 6.273438 2.191406 C 6.234375 2.160156 6.179688 2.140625 6.113281 2.140625 C 6.046875 2.140625 5.992188 2.15625 5.957031 2.183594 C 5.917969 2.210938 5.902344 2.25 5.902344 2.296875 C 5.902344 2.339844 5.921875 2.375 5.964844 2.402344 C 6.007812 2.433594 6.074219 2.460938 6.15625 2.484375 C 6.3125 2.53125 6.425781 2.589844 6.496094 2.660156 C 6.566406 2.726562 6.601562 2.8125 6.601562 2.917969 C 6.601562 3.03125 6.558594 3.121094 6.472656 3.1875 C 6.386719 3.25 6.269531 3.285156 6.121094 3.285156 C 6.019531 3.285156 5.929688 3.265625 5.84375 3.226562 C 5.761719 3.191406 5.699219 3.140625 5.652344 3.074219 C 5.609375 3.011719 5.585938 2.933594 5.585938 2.851562 L 5.859375 2.851562 C 5.859375 2.996094 5.949219 3.070312 6.121094 3.070312 C 6.1875 3.070312 6.238281 3.054688 6.273438 3.03125 C 6.308594 3.003906 6.328125 2.964844 6.328125 2.917969 Z M 7.296875 2.800781 L 7.058594 2.800781 L 7.058594 3.265625 L 6.785156 3.265625 L 6.785156 1.941406 L 7.304688 1.941406 C 7.402344 1.941406 7.488281 1.960938 7.566406 1.996094 C 7.640625 2.035156 7.699219 2.085938 7.738281 2.152344 C 7.78125 2.21875 7.800781 2.296875 7.800781 2.382812 C 7.800781 2.511719 7.753906 2.613281 7.667969 2.6875 C 7.578125 2.761719 7.453125 2.800781 7.296875 2.800781 Z M 7.058594 2.164062 L 7.058594 2.578125 L 7.304688 2.578125 C 7.375 2.578125 7.429688 2.5625 7.46875 2.527344 C 7.503906 2.492188 7.523438 2.445312 7.523438 2.382812 C 7.523438 2.316406 7.503906 2.265625 7.46875 2.226562 C 7.429688 2.183594 7.375 2.164062 7.308594 2.164062 Z M 7.617188 3.136719 C 7.617188 3.09375 7.628906 3.0625 7.65625 3.035156 C 7.6875 3.007812 7.722656 2.996094 7.765625 2.996094 C 7.808594 2.996094 7.84375 3.007812 7.871094 3.035156 C 7.898438 3.0625 7.914062 3.09375 7.914062 3.136719 C 7.914062 3.179688 7.898438 3.210938 7.871094 3.238281 C 7.84375 3.261719 7.808594 3.277344 7.765625 3.277344 C 7.722656 3.277344 7.6875 3.261719 7.65625 3.238281 C 7.628906 3.210938 7.617188 3.179688 7.617188 3.136719 Z M 9.234375 1.941406 L 9.234375 3.265625 L 8.964844 3.265625 L 8.433594 2.394531 L 8.433594 3.265625 L 8.160156 3.265625 L 8.160156 1.941406 L 8.433594 1.941406 L 8.964844 2.816406 L 8.964844 1.941406 Z M 10.269531 2.480469 L 10.269531 2.691406 L 9.746094 2.691406 L 9.746094 3.046875 L 10.359375 3.046875 L 10.359375 3.265625 L 9.472656 3.265625 L 9.472656 1.941406 L 10.359375 1.941406 L 10.359375 2.164062 L 9.746094 2.164062 L 9.746094 2.480469 Z M 11.535156 1.941406 L 11.535156 2.164062 L 11.128906 2.164062 L 11.128906 3.265625 L 10.855469 3.265625 L 10.855469 2.164062 L 10.457031 2.164062 L 10.457031 1.941406 Z M 11.535156 1.941406 "/>
</g>
</svg>
