<svg enable-background="new 0 0 60 60" height="512" viewBox="0 0 60 60" width="512" xmlns="http://www.w3.org/2000/svg"><path d="m15 48h-8l2-28h4z" fill="#e7eced"/><path d="m53 48h-8l2-28h4z" fill="#e7eced"/><path d="m34 48h-8l2-28h4z" fill="#e7eced"/><path d="m5 47h12v5h-12z" fill="#afb6bb"/><path d="m7 16h8v5h-8z" fill="#afb6bb"/><path d="m43 47h12v5h-12z" fill="#afb6bb"/><path d="m45 16h8v5h-8z" fill="#afb6bb"/><path d="m24 47h12v5h-12z" fill="#afb6bb"/><path d="m26 16h8v5h-8z" fill="#afb6bb"/><path d="m5 12h50v5h-50z" fill="#e7eced" transform="matrix(-1 0 0 -1 60 29)"/><path d="m59 13h-58l29-12z" fill="#afb6bb"/><path d="m3 51h54v5h-54z" fill="#e7eced"/><path d="m1 55h58v4h-58z" fill="#afb6bb"/><g fill="#4d007e"><path d="m59 60h-58c-.552 0-1-.448-1-1v-4c0-.552.448-1 1-1h58c.552 0 1 .448 1 1v4c0 .552-.448 1-1 1zm-57-2h56v-2h-56z"/><path d="m57 56h-54c-.552 0-1-.448-1-1v-4c0-.552.448-1 1-1h54c.552 0 1 .448 1 1v4c0 .552-.448 1-1 1zm-53-2h52v-2h-52z"/><path d="m17 52h-12c-.552 0-1-.448-1-1v-4c0-.552.448-1 1-1h12c.552 0 1 .448 1 1v4c0 .552-.448 1-1 1zm-11-2h10v-2h-10z"/><path d="m15 22h-8c-.552 0-1-.448-1-1v-4c0-.552.448-1 1-1h8c.552 0 1 .448 1 1v4c0 .552-.448 1-1 1zm-7-2h6v-2h-6z"/><path d="m15 48h-8c-.279 0-.544-.116-.734-.32-.189-.205-.285-.479-.263-.756l2-26c.04-.522.475-.924.997-.924h4c.522 0 .957.402.997.923l2 26c.021.278-.074.552-.263.756-.19.205-.455.321-.734.321zm-6.92-2h5.84l-1.846-24h-2.148z"/><path d="m59 14h-58c-.477 0-.888-.337-.981-.805s.157-.937.598-1.119l29-12c.245-.102.52-.102.765 0l29 12c.441.182.691.651.598 1.119-.092.468-.503.805-.98.805zm-52.968-2h47.936l-23.968-9.918z"/><path d="m55 18h-50c-.552 0-1-.448-1-1v-4c0-.552.448-1 1-1h50c.552 0 1 .448 1 1v4c0 .552-.448 1-1 1zm-49-2h48v-2h-48z"/><path d="m55 52h-12c-.552 0-1-.448-1-1v-4c0-.552.448-1 1-1h12c.552 0 1 .448 1 1v4c0 .552-.448 1-1 1zm-11-2h10v-2h-10z"/><path d="m53 22h-8c-.552 0-1-.448-1-1v-4c0-.552.448-1 1-1h8c.552 0 1 .448 1 1v4c0 .552-.448 1-1 1zm-7-2h6v-2h-6z"/><path d="m53 48h-8c-.279 0-.544-.116-.734-.32-.189-.205-.285-.479-.263-.756l2-26c.04-.522.475-.924.997-.924h4c.522 0 .957.402.997.923l2 26c.021.278-.074.552-.263.756-.19.205-.455.321-.734.321zm-6.92-2h5.84l-1.846-24h-2.148z"/><path d="m36 52h-12c-.552 0-1-.448-1-1v-4c0-.552.448-1 1-1h12c.552 0 1 .448 1 1v4c0 .552-.448 1-1 1zm-11-2h10v-2h-10z"/><path d="m34 22h-8c-.552 0-1-.448-1-1v-4c0-.552.448-1 1-1h8c.552 0 1 .448 1 1v4c0 .552-.448 1-1 1zm-7-2h6v-2h-6z"/><path d="m34 48h-8c-.279 0-.544-.116-.734-.32-.189-.205-.285-.479-.263-.756l2-26c.04-.522.475-.924.997-.924h4c.522 0 .957.402.997.923l2 26c.021.278-.074.552-.263.756-.19.205-.455.321-.734.321zm-6.92-2h5.84l-1.846-24h-2.148z"/></g></svg>