<svg width="1561" height="758" viewBox="0 0 1561 758" fill="none" xmlns="http://www.w3.org/2000/svg">
<g clip-path="url(#clip0)">
<rect width="1561" height="758" fill="white"/>
<path d="M186 781.13V787.455H170.05V804.835H186V811.16H149.7V804.835H164.55V787.455H149.7V781.13H186ZM186 614.349V620.674H170.05L170.05 638.054H186V644.379H149.7V638.054H164.55L164.55 620.674H149.7V614.349H186ZM149.425 582.522C149.425 579.662 149.92 577.132 150.91 574.932C151.9 572.732 153.257 570.88 154.98 569.377C156.667 567.873 158.628 566.737 160.865 565.967C163.102 565.197 165.448 564.812 167.905 564.812C170.325 564.812 172.672 565.197 174.945 565.967C177.182 566.7 179.18 567.837 180.94 569.377C182.663 570.88 184.057 572.768 185.12 575.042C186.147 577.278 186.66 579.9 186.66 582.907C186.66 585.84 186.165 588.388 185.175 590.552C184.185 592.715 182.847 594.512 181.16 595.942C179.473 597.372 177.53 598.453 175.33 599.187C173.093 599.883 170.747 600.232 168.29 600.232C165.687 600.232 163.248 599.847 160.975 599.077C158.665 598.27 156.667 597.115 154.98 595.612C153.257 594.108 151.9 592.257 150.91 590.057C149.92 587.857 149.425 585.345 149.425 582.522ZM181.27 582.797C181.27 580.78 180.94 579.075 180.28 577.682C179.583 576.252 178.648 575.078 177.475 574.162C176.265 573.245 174.853 572.585 173.24 572.182C171.627 571.742 169.903 571.522 168.07 571.522C166.09 571.522 164.293 571.742 162.68 572.182C161.067 572.622 159.673 573.3 158.5 574.217C157.327 575.133 156.428 576.307 155.805 577.737C155.145 579.13 154.815 580.78 154.815 582.687C154.815 584.63 155.145 586.298 155.805 587.692C156.428 589.048 157.308 590.167 158.445 591.047C159.582 591.89 160.938 592.513 162.515 592.917C164.092 593.283 165.833 593.467 167.74 593.467C172.213 593.467 175.587 592.55 177.86 590.717C180.133 588.883 181.27 586.243 181.27 582.797ZM176.375 526.961H149.7V520.636H186V528.391L159.38 544.341H186V550.666H149.7V542.911L176.375 526.961ZM149.425 488.809C149.425 485.949 149.92 483.419 150.91 481.219C151.9 479.019 153.257 477.167 154.98 475.664C156.667 474.161 158.628 473.024 160.865 472.254C163.102 471.484 165.448 471.099 167.905 471.099C170.325 471.099 172.672 471.484 174.945 472.254C177.182 472.987 179.18 474.124 180.94 475.664C182.663 477.167 184.057 479.056 185.12 481.329C186.147 483.566 186.66 486.187 186.66 489.194C186.66 492.127 186.165 494.676 185.175 496.839C184.185 499.002 182.847 500.799 181.16 502.229C179.473 503.659 177.53 504.741 175.33 505.474C173.093 506.171 170.747 506.519 168.29 506.519C165.687 506.519 163.248 506.134 160.975 505.364C158.665 504.557 156.667 503.402 154.98 501.899C153.257 500.396 151.9 498.544 150.91 496.344C149.92 494.144 149.425 491.632 149.425 488.809ZM181.27 489.084C181.27 487.067 180.94 485.362 180.28 483.969C179.583 482.539 178.648 481.366 177.475 480.449C176.265 479.532 174.853 478.872 173.24 478.469C171.627 478.029 169.903 477.809 168.07 477.809C166.09 477.809 164.293 478.029 162.68 478.469C161.067 478.909 159.673 479.587 158.5 480.504C157.327 481.421 156.428 482.594 155.805 484.024C155.145 485.417 154.815 487.067 154.815 488.974C154.815 490.917 155.145 492.586 155.805 493.979C156.428 495.336 157.308 496.454 158.445 497.334C159.582 498.177 160.938 498.801 162.515 499.204C164.092 499.571 165.833 499.754 167.74 499.754C172.213 499.754 175.587 498.837 177.86 497.004C180.133 495.171 181.27 492.531 181.27 489.084ZM170.49 448.044C170.49 448.447 170.49 448.869 170.49 449.309C170.49 449.712 170.472 450.152 170.435 450.629H186V456.954H149.7C149.663 456.367 149.627 455.707 149.59 454.974C149.553 454.204 149.535 453.434 149.535 452.664C149.498 451.894 149.48 451.179 149.48 450.519C149.443 449.822 149.425 449.272 149.425 448.869C149.425 444.175 150.323 440.6 152.12 438.144C153.88 435.687 156.465 434.459 159.875 434.459C162.038 434.459 163.982 434.99 165.705 436.054C167.428 437.117 168.712 438.895 169.555 441.389L186 428.079V435.394L170.49 448.044ZM154.705 448.319C154.705 448.612 154.705 448.96 154.705 449.364C154.705 449.767 154.723 450.189 154.76 450.629H165.21V447.219C165.21 445.239 164.715 443.735 163.725 442.709C162.735 441.682 161.323 441.169 159.49 441.169C157.84 441.169 156.63 441.682 155.86 442.709C155.09 443.699 154.705 445.569 154.705 448.319ZM161.69 365.931H165.925L166.53 373.851C168.583 372.677 170.765 372.091 173.075 372.091C174.872 372.091 176.613 372.457 178.3 373.191L186 365.711V372.531L182.425 375.996C183.708 377.279 184.735 378.856 185.505 380.726C186.275 382.596 186.66 384.741 186.66 387.161C186.66 389.214 186.385 391.029 185.835 392.606C185.248 394.182 184.478 395.502 183.525 396.566C182.535 397.629 181.417 398.436 180.17 398.986C178.923 399.499 177.64 399.756 176.32 399.756C175.33 399.756 174.322 399.609 173.295 399.316C172.232 398.986 171.223 398.527 170.27 397.941C169.317 397.317 168.437 396.547 167.63 395.631C166.823 394.677 166.163 393.596 165.65 392.386C164.403 393.449 163.157 394.274 161.91 394.861C160.663 395.447 159.233 395.741 157.62 395.741C156.263 395.741 155.09 395.539 154.1 395.136C153.073 394.696 152.212 394.109 151.515 393.376C150.818 392.606 150.305 391.726 149.975 390.736C149.608 389.746 149.425 388.701 149.425 387.601C149.425 386.354 149.645 385.052 150.085 383.696C150.488 382.302 151.075 380.982 151.845 379.736L157.125 381.276C156.832 381.606 156.538 382.009 156.245 382.486C155.915 382.962 155.64 383.476 155.42 384.026C155.163 384.539 154.962 385.071 154.815 385.621C154.632 386.171 154.54 386.684 154.54 387.161C154.54 388.041 154.833 388.792 155.42 389.416C156.007 390.002 156.887 390.296 158.06 390.296C159.233 390.296 160.297 389.966 161.25 389.306C162.167 388.646 163.12 387.839 164.11 386.886L173.9 377.426C173.717 377.389 173.515 377.371 173.295 377.371C173.075 377.334 172.855 377.316 172.635 377.316C171.792 377.316 170.893 377.462 169.94 377.756C168.95 378.012 167.96 378.489 166.97 379.186L167.135 381.881H163.725L161.69 365.931ZM181.38 386.666C181.38 385.199 181.142 383.879 180.665 382.706C180.152 381.532 179.473 380.542 178.63 379.736L169.115 389.086C169.298 389.782 169.61 390.406 170.05 390.956C170.49 391.469 171.003 391.909 171.59 392.276C172.14 392.642 172.763 392.917 173.46 393.101C174.157 393.284 174.853 393.376 175.55 393.376C177.53 393.376 178.997 392.752 179.95 391.506C180.903 390.222 181.38 388.609 181.38 386.666ZM186 303.784V310.659L175.44 314.784V328.479L186 332.219V338.819L149.7 324.739L149.7 319.294L186 303.784ZM170.49 326.719V316.764L157.125 321.989L170.49 326.719ZM186 255.624V260.849L158.39 270.749L186 280.594V285.819L149.7 299.349V292.474L177.86 283.179L149.7 273.829V267.614L177.86 258.319L149.7 249.024V242.149L186 255.624ZM186 201.961V208.836L175.44 212.961V226.656L186 230.396V236.996L149.7 222.916V217.471L186 201.961ZM170.49 224.896V214.941L157.125 220.166L170.49 224.896ZM170.49 182.22C170.49 182.623 170.49 183.045 170.49 183.485C170.49 183.888 170.472 184.328 170.435 184.805H186V191.13H149.7C149.663 190.543 149.627 189.883 149.59 189.15C149.553 188.38 149.535 187.61 149.535 186.84C149.498 186.07 149.48 185.355 149.48 184.695C149.443 183.998 149.425 183.448 149.425 183.045C149.425 178.351 150.323 174.776 152.12 172.32C153.88 169.863 156.465 168.635 159.875 168.635C162.038 168.635 163.982 169.166 165.705 170.23C167.428 171.293 168.712 173.071 169.555 175.565L186 162.255V169.57L170.49 182.22ZM154.705 182.495C154.705 182.788 154.705 183.136 154.705 183.54C154.705 183.943 154.723 184.365 154.76 184.805H165.21V181.395C165.21 179.415 164.715 177.911 163.725 176.885C162.735 175.858 161.323 175.345 159.49 175.345C157.84 175.345 156.63 175.858 155.86 176.885C155.09 177.875 154.705 179.745 154.705 182.495ZM149.7 151.175C149.663 150.698 149.627 149.947 149.59 148.92C149.553 147.893 149.535 146.812 149.535 145.675C149.498 144.538 149.48 143.457 149.48 142.43C149.443 141.367 149.425 140.542 149.425 139.955C149.425 136.398 149.792 133.483 150.525 131.21C151.258 128.9 152.267 126.993 153.55 125.49C155.237 123.547 157.382 122.135 159.985 121.255C162.588 120.375 165.467 119.935 168.62 119.935C171.003 119.935 173.295 120.247 175.495 120.87C177.658 121.457 179.565 122.538 181.215 124.115C182.865 125.655 184.185 127.8 185.175 130.55C186.128 133.263 186.605 136.747 186.605 141C186.605 142.54 186.55 144.19 186.44 145.95C186.33 147.71 186.183 149.452 186 151.175H149.7ZM181.38 139.46C181.38 135.023 180.317 131.797 178.19 129.78C176.063 127.727 172.598 126.7 167.795 126.7C165.632 126.7 163.743 126.92 162.13 127.36C160.48 127.763 159.105 128.478 158.005 129.505C156.905 130.532 156.08 131.907 155.53 133.63C154.98 135.353 154.705 137.498 154.705 140.065C154.705 140.578 154.705 141.275 154.705 142.155C154.705 142.998 154.723 143.897 154.76 144.85H181.16C181.233 143.823 181.288 142.833 181.325 141.88C181.362 140.927 181.38 140.12 181.38 139.46ZM158.445 101.068C159.215 101.068 159.875 100.903 160.425 100.573C160.975 100.207 161.452 99.7117 161.855 99.0883C162.258 98.465 162.643 97.7317 163.01 96.8883C163.34 96.0083 163.688 95.0367 164.055 93.9733C164.532 92.6533 165.082 91.3517 165.705 90.0683C166.292 88.7483 167.043 87.575 167.96 86.5483C168.84 85.485 169.94 84.6233 171.26 83.9633C172.58 83.3033 174.175 82.9733 176.045 82.9733C178.025 82.9733 179.693 83.34 181.05 84.0733C182.407 84.77 183.507 85.7233 184.35 86.9333C185.157 88.1433 185.743 89.5367 186.11 91.1133C186.477 92.69 186.66 94.3217 186.66 96.0083C186.66 98.4283 186.367 100.702 185.78 102.828C185.193 104.918 184.478 106.715 183.635 108.218L177.695 106.568C178.758 105.175 179.638 103.635 180.335 101.948C181.032 100.225 181.38 98.2633 181.38 96.0633C181.38 93.7167 180.977 92.0117 180.17 90.9483C179.327 89.885 178.208 89.3533 176.815 89.3533C175.752 89.3533 174.853 89.61 174.12 90.1233C173.35 90.6367 172.708 91.2783 172.195 92.0483C171.645 92.8183 171.205 93.6433 170.875 94.5233C170.545 95.3667 170.27 96.1183 170.05 96.7783C169.683 97.9517 169.243 99.1433 168.73 100.353C168.217 101.563 167.557 102.682 166.75 103.708C165.907 104.735 164.862 105.578 163.615 106.238C162.368 106.862 160.81 107.173 158.94 107.173C157.18 107.173 155.695 106.88 154.485 106.293C153.275 105.67 152.303 104.845 151.57 103.818C150.8 102.755 150.25 101.527 149.92 100.133C149.59 98.7033 149.425 97.1633 149.425 95.5133C149.425 93.4967 149.627 91.5533 150.03 89.6833C150.433 87.7767 150.928 86.1817 151.515 84.8983L157.345 86.3833C156.905 87.0433 156.52 87.7583 156.19 88.5283C155.86 89.2983 155.585 90.105 155.365 90.9483C155.145 91.755 154.98 92.58 154.87 93.4233C154.723 94.23 154.65 95 154.65 95.7333C154.65 97.3833 154.962 98.685 155.585 99.6383C156.208 100.592 157.162 101.068 158.445 101.068Z" fill="#DDDDDD"/>
</g>
<defs>
<clipPath id="clip0">
<rect width="1561" height="758" fill="white"/>
</clipPath>
</defs>
</svg>
