<svg width="1561" height="758" viewBox="0 0 1561 758" fill="none" xmlns="http://www.w3.org/2000/svg">
<g clip-path="url(#clip0)">
<rect width="1561" height="758" fill="white"/>
<path d="M157.51 785.64C156.703 786.813 156.062 788.225 155.585 789.875C155.072 791.488 154.815 793.34 154.815 795.43C154.815 797.41 155.127 799.115 155.75 800.545C156.373 801.938 157.253 803.075 158.39 803.955C159.527 804.835 160.902 805.495 162.515 805.935C164.092 806.338 165.852 806.54 167.795 806.54C172.232 806.54 175.587 805.605 177.86 803.735C180.133 801.828 181.27 799.097 181.27 795.54C181.27 793.34 180.94 791.342 180.28 789.545C179.62 787.712 178.813 786.208 177.86 785.035L183.305 783.385C184.185 784.852 184.973 786.63 185.67 788.72C186.33 790.773 186.66 793.102 186.66 795.705C186.66 798.712 186.165 801.315 185.175 803.515C184.185 805.715 182.847 807.548 181.16 809.015C179.473 810.445 177.53 811.508 175.33 812.205C173.093 812.902 170.728 813.25 168.235 813.25C165.632 813.25 163.193 812.865 160.92 812.095C158.647 811.325 156.667 810.188 154.98 808.685C153.257 807.145 151.9 805.257 150.91 803.02C149.92 800.747 149.425 798.107 149.425 795.1C149.425 793.12 149.645 791.14 150.085 789.16C150.488 787.18 151.057 785.475 151.79 784.045L157.51 785.64ZM157.51 302.712C156.703 303.885 156.062 305.297 155.585 306.947C155.072 308.56 154.815 310.412 154.815 312.502C154.815 314.482 155.127 316.187 155.75 317.617C156.373 319.01 157.253 320.147 158.39 321.027C159.527 321.907 160.902 322.567 162.515 323.007C164.092 323.41 165.852 323.612 167.795 323.612C172.232 323.612 175.587 322.677 177.86 320.807C180.133 318.9 181.27 316.169 181.27 312.612C181.27 310.412 180.94 308.414 180.28 306.617C179.62 304.784 178.813 303.28 177.86 302.107L183.305 300.457C184.185 301.924 184.973 303.702 185.67 305.792C186.33 307.845 186.66 310.174 186.66 312.777C186.66 315.784 186.165 318.387 185.175 320.587C184.185 322.787 182.847 324.62 181.16 326.087C179.473 327.517 177.53 328.58 175.33 329.277C173.093 329.974 170.728 330.322 168.235 330.322C165.632 330.322 163.193 329.937 160.92 329.167C158.647 328.397 156.667 327.26 154.98 325.757C153.257 324.217 151.9 322.329 150.91 320.092C149.92 317.819 149.425 315.179 149.425 312.172C149.425 310.192 149.645 308.212 150.085 306.232C150.488 304.252 151.057 302.547 151.79 301.117L157.51 302.712ZM149.425 272.229C149.425 269.369 149.92 266.839 150.91 264.639C151.9 262.439 153.257 260.587 154.98 259.084C156.667 257.581 158.628 256.444 160.865 255.674C163.102 254.904 165.448 254.519 167.905 254.519C170.325 254.519 172.672 254.904 174.945 255.674C177.182 256.407 179.18 257.544 180.94 259.084C182.663 260.587 184.057 262.476 185.12 264.749C186.147 266.986 186.66 269.607 186.66 272.614C186.66 275.547 186.165 278.096 185.175 280.259C184.185 282.422 182.847 284.219 181.16 285.649C179.473 287.079 177.53 288.161 175.33 288.894C173.093 289.591 170.747 289.939 168.29 289.939C165.687 289.939 163.248 289.554 160.975 288.784C158.665 287.977 156.667 286.822 154.98 285.319C153.257 283.816 151.9 281.964 150.91 279.764C149.92 277.564 149.425 275.052 149.425 272.229ZM181.27 272.504C181.27 270.487 180.94 268.782 180.28 267.389C179.583 265.959 178.648 264.786 177.475 263.869C176.265 262.952 174.853 262.292 173.24 261.889C171.627 261.449 169.903 261.229 168.07 261.229C166.09 261.229 164.293 261.449 162.68 261.889C161.067 262.329 159.673 263.007 158.5 263.924C157.327 264.841 156.428 266.014 155.805 267.444C155.145 268.837 154.815 270.487 154.815 272.394C154.815 274.337 155.145 276.006 155.805 277.399C156.428 278.756 157.308 279.874 158.445 280.754C159.582 281.597 160.938 282.221 162.515 282.624C164.092 282.991 165.833 283.174 167.74 283.174C172.213 283.174 175.587 282.257 177.86 280.424C180.133 278.591 181.27 275.951 181.27 272.504ZM176.375 216.669H149.7V210.344H186V218.099L159.38 234.049H186V240.374H149.7V232.619L176.375 216.669ZM155.2 170.432V180.937H186V187.262H155.2V197.767H149.7V170.432H155.2ZM186 130.16V137.035L175.44 141.16V154.855L186 158.595V165.195L149.7 151.115V145.67L186 130.16ZM170.49 153.095V143.14L157.125 148.365L170.49 153.095ZM157.51 94.1847C156.703 95.3581 156.062 96.7697 155.585 98.4197C155.072 100.033 154.815 101.885 154.815 103.975C154.815 105.955 155.127 107.66 155.75 109.09C156.373 110.483 157.253 111.62 158.39 112.5C159.527 113.38 160.902 114.04 162.515 114.48C164.092 114.883 165.852 115.085 167.795 115.085C172.232 115.085 175.587 114.15 177.86 112.28C180.133 110.373 181.27 107.641 181.27 104.085C181.27 101.885 180.94 99.8864 180.28 98.0897C179.62 96.2564 178.813 94.7531 177.86 93.5797L183.305 91.9297C184.185 93.3964 184.973 95.1747 185.67 97.2647C186.33 99.3181 186.66 101.646 186.66 104.25C186.66 107.256 186.165 109.86 185.175 112.06C184.185 114.26 182.847 116.093 181.16 117.56C179.473 118.99 177.53 120.053 175.33 120.75C173.093 121.446 170.728 121.795 168.235 121.795C165.632 121.795 163.193 121.41 160.92 120.64C158.647 119.87 156.667 118.733 154.98 117.23C153.257 115.69 151.9 113.801 150.91 111.565C149.92 109.291 149.425 106.651 149.425 103.645C149.425 101.665 149.645 99.6847 150.085 97.7047C150.488 95.7247 151.057 94.0197 151.79 92.5897L157.51 94.1847ZM155.2 54.9186V65.4236H186V71.7486H155.2V82.2536H149.7V54.9186H155.2Z" fill="#DDDDDD"/>
</g>
<defs>
<clipPath id="clip0">
<rect width="1561" height="758" fill="white"/>
</clipPath>
</defs>
</svg>
