<svg width="1561" height="758" viewBox="0 0 1561 758" fill="none" xmlns="http://www.w3.org/2000/svg">
<g clip-path="url(#clip0)">
<rect width="1561" height="758" fill="white"/>
<path d="M169.5 514.835V525.835H180.5V510.05H186V532.16H149.7V511.15H155.2V525.835H164V514.835H169.5ZM149.7 485.999C149.663 485.522 149.627 484.77 149.59 483.744C149.553 482.717 149.535 481.635 149.535 480.499C149.498 479.362 149.48 478.28 149.48 477.254C149.443 476.19 149.425 475.365 149.425 474.779C149.425 471.222 149.792 468.307 150.525 466.034C151.258 463.724 152.267 461.817 153.55 460.314C155.237 458.37 157.382 456.959 159.985 456.079C162.588 455.199 165.467 454.759 168.62 454.759C171.003 454.759 173.295 455.07 175.495 455.694C177.658 456.28 179.565 457.362 181.215 458.939C182.865 460.479 184.185 462.624 185.175 465.374C186.128 468.087 186.605 471.57 186.605 475.824C186.605 477.364 186.55 479.014 186.44 480.774C186.33 482.534 186.183 484.275 186 485.999H149.7ZM181.38 474.284C181.38 469.847 180.317 466.62 178.19 464.604C176.063 462.55 172.598 461.524 167.795 461.524C165.632 461.524 163.743 461.744 162.13 462.184C160.48 462.587 159.105 463.302 158.005 464.329C156.905 465.355 156.08 466.73 155.53 468.454C154.98 470.177 154.705 472.322 154.705 474.889C154.705 475.402 154.705 476.099 154.705 476.979C154.705 477.822 154.723 478.72 154.76 479.674H181.16C181.233 478.647 181.288 477.657 181.325 476.704C181.362 475.75 181.38 474.944 181.38 474.284ZM171.92 424.122C175.257 424.122 177.658 423.352 179.125 421.812C180.555 420.272 181.27 418.127 181.27 415.377C181.27 412.627 180.555 410.482 179.125 408.942C177.658 407.365 175.257 406.577 171.92 406.577H149.7V400.527H173.24C175.037 400.527 176.742 400.82 178.355 401.407C179.968 401.994 181.398 402.91 182.645 404.157C183.855 405.367 184.827 406.944 185.56 408.887C186.257 410.794 186.605 413.067 186.605 415.707C186.605 418.347 186.257 420.602 185.56 422.472C184.827 424.342 183.855 425.882 182.645 427.092C181.398 428.265 179.968 429.127 178.355 429.677C176.742 430.19 175.037 430.447 173.24 430.447H149.7V424.122H171.92ZM157.51 348.713C156.703 349.886 156.062 351.298 155.585 352.948C155.072 354.561 154.815 356.413 154.815 358.503C154.815 360.483 155.127 362.188 155.75 363.618C156.373 365.011 157.253 366.148 158.39 367.028C159.527 367.908 160.902 368.568 162.515 369.008C164.092 369.411 165.852 369.613 167.795 369.613C172.232 369.613 175.587 368.678 177.86 366.808C180.133 364.901 181.27 362.169 181.27 358.613C181.27 356.413 180.94 354.414 180.28 352.618C179.62 350.784 178.813 349.281 177.86 348.108L183.305 346.458C184.185 347.924 184.973 349.703 185.67 351.793C186.33 353.846 186.66 356.174 186.66 358.778C186.66 361.784 186.165 364.388 185.175 366.588C184.185 368.788 182.847 370.621 181.16 372.088C179.473 373.518 177.53 374.581 175.33 375.278C173.093 375.974 170.728 376.323 168.235 376.323C165.632 376.323 163.193 375.938 160.92 375.168C158.647 374.398 156.667 373.261 154.98 371.758C153.257 370.218 151.9 368.329 150.91 366.093C149.92 363.819 149.425 361.179 149.425 358.173C149.425 356.193 149.645 354.213 150.085 352.233C150.488 350.253 151.057 348.548 151.79 347.118L157.51 348.713ZM186 292.342V299.217L175.44 303.342V317.037L186 320.777L186 327.377L149.7 313.297V307.852L186 292.342ZM170.49 315.277V305.322L157.125 310.547L170.49 315.277ZM155.2 250.042V260.547H186V266.872H155.2V277.377H149.7V250.042H155.2ZM186 220.669V226.994H149.7V220.669H186ZM149.425 178.373C149.425 175.513 149.92 172.983 150.91 170.783C151.9 168.583 153.257 166.731 154.98 165.228C156.667 163.725 158.628 162.588 160.865 161.818C163.102 161.048 165.448 160.663 167.905 160.663C170.325 160.663 172.672 161.048 174.945 161.818C177.182 162.551 179.18 163.688 180.94 165.228C182.663 166.731 184.057 168.62 185.12 170.893C186.147 173.13 186.66 175.751 186.66 178.758C186.66 181.691 186.165 184.24 185.175 186.403C184.185 188.566 182.847 190.363 181.16 191.793C179.473 193.223 177.53 194.305 175.33 195.038C173.093 195.735 170.747 196.083 168.29 196.083C165.687 196.083 163.248 195.698 160.975 194.928C158.665 194.121 156.667 192.966 154.98 191.463C153.257 189.96 151.9 188.108 150.91 185.908C149.92 183.708 149.425 181.196 149.425 178.373ZM181.27 178.648C181.27 176.631 180.94 174.926 180.28 173.533C179.583 172.103 178.648 170.93 177.475 170.013C176.265 169.096 174.853 168.436 173.24 168.033C171.627 167.593 169.903 167.373 168.07 167.373C166.09 167.373 164.293 167.593 162.68 168.033C161.067 168.473 159.673 169.151 158.5 170.068C157.327 170.985 156.428 172.158 155.805 173.588C155.145 174.981 154.815 176.631 154.815 178.538C154.815 180.481 155.145 182.15 155.805 183.543C156.428 184.9 157.308 186.018 158.445 186.898C159.582 187.741 160.938 188.365 162.515 188.768C164.092 189.135 165.833 189.318 167.74 189.318C172.213 189.318 175.587 188.401 177.86 186.568C180.133 184.735 181.27 182.095 181.27 178.648ZM176.375 112.363H149.7V106.038H186V113.793L159.38 129.743H186V136.068H149.7V128.313L176.375 112.363Z" fill="#DDDDDD"/>
</g>
<defs>
<clipPath id="clip0">
<rect width="1561" height="758" fill="white"/>
</clipPath>
</defs>
</svg>
