<svg width="400" height="219" viewBox="0 0 400 219" fill="none" xmlns="http://www.w3.org/2000/svg">
<rect width="400" height="219" fill="#E5E5E5"/>
<rect width="400" height="218.1" fill="white"/>
<path d="M45.4297 165.169V168.333H48.2484V163.793H49.6578V170.152H40.356V164.109H41.7654V168.333H44.0204V165.169H45.4297ZM47.4592 151.245L40.356 147.78V145.708H49.6578V147.512H43.5271L49.6578 150.517V151.972L43.5271 155.057H49.6578V156.876H40.356V154.804L47.4592 151.245ZM46.1626 135.176C46.1626 135.356 46.1626 135.535 46.1626 135.714C46.1626 135.883 46.158 136.046 46.1485 136.204H49.6578V138.023H40.356C40.3466 137.865 40.3373 137.686 40.3279 137.486C40.3184 137.275 40.3138 137.058 40.3138 136.837C40.3043 136.605 40.2997 136.378 40.2997 136.157C40.2902 135.925 40.2856 135.709 40.2856 135.508C40.2856 134.918 40.3514 134.38 40.4829 133.895C40.6051 133.41 40.793 132.993 41.0466 132.645C41.3003 132.297 41.615 132.028 41.9909 131.839C42.3573 131.649 42.7848 131.554 43.2734 131.554C43.668 131.554 44.0391 131.628 44.3868 131.775C44.7345 131.923 45.0397 132.145 45.3029 132.44C45.566 132.735 45.7774 133.115 45.9371 133.579C46.0875 134.032 46.1626 134.565 46.1626 135.176ZM41.6386 135.255C41.6386 135.424 41.6386 135.587 41.6386 135.746C41.6386 135.904 41.6432 136.057 41.6527 136.204H44.7955C44.805 136.057 44.8096 135.904 44.8096 135.746C44.8096 135.577 44.8096 135.403 44.8096 135.224C44.8096 134.654 44.6687 134.227 44.3868 133.942C44.1049 133.647 43.6962 133.499 43.1607 133.499C42.7097 133.499 42.3432 133.631 42.0614 133.895C41.7795 134.148 41.6386 134.601 41.6386 135.255ZM48.2484 122.898V118.548H49.6578V124.717H40.356V122.898H48.2484ZM40.2856 107.675C40.2856 106.852 40.4124 106.125 40.6661 105.492C40.9198 104.859 41.2675 104.327 41.709 103.894C42.1413 103.462 42.6438 103.135 43.217 102.914C43.7903 102.692 44.3914 102.581 45.021 102.581C45.6411 102.581 46.2425 102.692 46.825 102.914C47.3982 103.124 47.9102 103.451 48.3612 103.894C48.8027 104.327 49.1599 104.87 49.4323 105.524C49.6954 106.167 49.8269 106.921 49.8269 107.785C49.8269 108.629 49.7001 109.362 49.4464 109.984C49.1927 110.606 48.8498 111.123 48.4175 111.534C47.9853 111.946 47.4874 112.257 46.9236 112.468C46.3504 112.668 45.7493 112.768 45.1197 112.768C44.4527 112.768 43.8277 112.657 43.2452 112.436C42.6533 112.204 42.1413 111.872 41.709 111.439C41.2675 111.007 40.9198 110.475 40.6661 109.842C40.4124 109.209 40.2856 108.487 40.2856 107.675ZM48.4457 107.754C48.4457 107.174 48.3612 106.683 48.1921 106.283C48.0134 105.872 47.7739 105.534 47.4733 105.27C47.1632 105.007 46.8014 104.817 46.3881 104.701C45.9748 104.574 45.533 104.511 45.0633 104.511C44.5559 104.511 44.0954 104.574 43.6821 104.701C43.2688 104.828 42.9116 105.023 42.611 105.286C42.3104 105.55 42.0801 105.887 41.9204 106.299C41.7513 106.699 41.6667 107.174 41.6667 107.722C41.6667 108.281 41.7513 108.761 41.9204 109.162C42.0801 109.552 42.3056 109.873 42.5969 110.127C42.8883 110.369 43.2357 110.548 43.6398 110.664C44.0439 110.77 44.4901 110.823 44.9787 110.823C46.1249 110.823 46.9895 110.559 47.5719 110.032C48.1544 109.504 48.4457 108.745 48.4457 107.754ZM40.356 97.3523V95.3117L44.57 92.6385L40.356 90.076V88.0671L45.8384 91.7843H49.6578V93.6034H45.8948L40.356 97.3523ZM47.4592 76.3072L40.356 72.8431V70.7709H49.6578V72.5742H43.5271L49.6578 75.5796V77.0348L43.5271 80.1193H49.6578V81.9384H40.356V79.8662L47.4592 76.3072ZM45.4297 58.1033V61.2669H48.2484V56.7272H49.6578V63.086H40.356V57.0435H41.7654V61.2669H44.0204V58.1033H45.4297ZM47.1914 42.9923H40.356V41.1733H49.6578V43.4036L42.8365 47.9908H49.6578V49.8098H40.356V47.5795L47.1914 42.9923ZM41.7654 26.6892V29.7104H49.6578V31.5295H41.7654V34.5507H40.356V26.6892H41.7654Z" fill="#DDDDDD"/>
<g filter="url(#filter0_d)">
<path d="M309.041 26.7467H351.065V71.6121H309.041V26.7467Z" fill="white"/>
</g>
<g filter="url(#filter1_d)">
<path d="M244.467 94.9077H264.967V117.916H244.467V94.9077Z" fill="white"/>
</g>
<g filter="url(#filter2_d)">
<path d="M291.36 159.905H326.466V193.842H291.36V159.905Z" fill="white"/>
</g>
<defs>
<filter id="filter0_d" x="297.041" y="18.7467" width="66.0243" height="68.8654" filterUnits="userSpaceOnUse" color-interpolation-filters="sRGB">
<feFlood flood-opacity="0" result="BackgroundImageFix"/>
<feColorMatrix in="SourceAlpha" type="matrix" values="0 0 0 0 0 0 0 0 0 0 0 0 0 0 0 0 0 0 127 0"/>
<feOffset dy="4"/>
<feGaussianBlur stdDeviation="6"/>
<feColorMatrix type="matrix" values="0 0 0 0 0 0 0 0 0 0 0 0 0 0 0 0 0 0 0.25 0"/>
<feBlend mode="normal" in2="BackgroundImageFix" result="effect1_dropShadow"/>
<feBlend mode="normal" in="SourceGraphic" in2="effect1_dropShadow" result="shape"/>
</filter>
<filter id="filter1_d" x="232.467" y="86.9077" width="44.4997" height="47.0079" filterUnits="userSpaceOnUse" color-interpolation-filters="sRGB">
<feFlood flood-opacity="0" result="BackgroundImageFix"/>
<feColorMatrix in="SourceAlpha" type="matrix" values="0 0 0 0 0 0 0 0 0 0 0 0 0 0 0 0 0 0 127 0"/>
<feOffset dy="4"/>
<feGaussianBlur stdDeviation="6"/>
<feColorMatrix type="matrix" values="0 0 0 0 0 0 0 0 0 0 0 0 0 0 0 0 0 0 0.25 0"/>
<feBlend mode="normal" in2="BackgroundImageFix" result="effect1_dropShadow"/>
<feBlend mode="normal" in="SourceGraphic" in2="effect1_dropShadow" result="shape"/>
</filter>
<filter id="filter2_d" x="279.36" y="151.905" width="59.1057" height="57.9367" filterUnits="userSpaceOnUse" color-interpolation-filters="sRGB">
<feFlood flood-opacity="0" result="BackgroundImageFix"/>
<feColorMatrix in="SourceAlpha" type="matrix" values="0 0 0 0 0 0 0 0 0 0 0 0 0 0 0 0 0 0 127 0"/>
<feOffset dy="4"/>
<feGaussianBlur stdDeviation="6"/>
<feColorMatrix type="matrix" values="0 0 0 0 0 0 0 0 0 0 0 0 0 0 0 0 0 0 0.25 0"/>
<feBlend mode="normal" in2="BackgroundImageFix" result="effect1_dropShadow"/>
<feBlend mode="normal" in="SourceGraphic" in2="effect1_dropShadow" result="shape"/>
</filter>
</defs>
</svg>
