<svg width="400" height="219" viewBox="0 0 400 219" fill="none" xmlns="http://www.w3.org/2000/svg">
<rect width="400" height="219" fill="#E5E5E5"/>
<g clip-path="url(#clip0)">
<path d="M400 -5H0V212H400V-5Z" fill="white"/>
<path d="M40.8661 169.712C41.0634 169.713 41.2328 169.666 41.374 169.572C41.5152 169.467 41.6379 169.325 41.7417 169.147C41.8457 168.968 41.9452 168.757 42.04 168.515C42.1253 168.262 42.2155 167.983 42.3103 167.678C42.4338 167.299 42.5761 166.925 42.737 166.556C42.8887 166.177 43.0824 165.841 43.3181 165.546C43.5447 165.241 43.8273 164.995 44.1663 164.807C44.5051 164.618 44.914 164.525 45.3932 164.527C45.9006 164.529 46.3277 164.636 46.6747 164.849C47.0217 165.051 47.3028 165.326 47.5175 165.675C47.7233 166.023 47.8721 166.425 47.9647 166.879C48.0572 167.333 48.1025 167.802 48.101 168.287C48.0987 168.983 48.0213 169.637 47.8688 170.248C47.7166 170.848 47.5316 171.364 47.314 171.796L45.7935 171.314C46.0674 170.915 46.2944 170.473 46.4746 169.989C46.6547 169.494 46.7457 168.93 46.748 168.297C46.75 167.623 46.6483 167.132 46.4428 166.825C46.2276 166.518 45.9416 166.364 45.5846 166.363C45.312 166.361 45.0816 166.434 44.8933 166.581C44.6955 166.728 44.5304 166.912 44.3982 167.133C44.2565 167.354 44.143 167.59 44.0574 167.843C43.9721 168.085 43.9008 168.301 43.844 168.491C43.7489 168.828 43.6349 169.17 43.5024 169.518C43.3696 169.865 43.1995 170.186 42.9917 170.48C42.7746 170.775 42.5061 171.016 42.186 171.205C41.866 171.383 41.4662 171.471 40.9871 171.469C40.5361 171.467 40.1558 171.381 39.8465 171.211C39.537 171.03 39.2887 170.792 39.1019 170.496C38.9056 170.189 38.7657 169.835 38.6826 169.434C38.5994 169.023 38.5586 168.579 38.5602 168.105C38.562 167.525 38.6155 166.966 38.7206 166.429C38.8259 165.881 38.9543 165.423 39.1057 165.054L40.5983 165.488C40.4848 165.677 40.3857 165.882 40.3003 166.103C40.215 166.324 40.1438 166.556 40.0866 166.798C40.0295 167.03 39.9864 167.267 39.9575 167.51C39.919 167.742 39.8996 167.963 39.8988 168.174C39.8973 168.648 39.9759 169.023 40.1345 169.298C40.2934 169.573 40.5374 169.711 40.8661 169.712ZM47.9954 149.115L47.9893 150.934L43.9021 150.917L43.8857 155.916L47.9726 155.933L47.9667 157.752L38.665 157.713L38.6711 155.894L42.4764 155.91L42.4928 150.911L38.6875 150.895L38.6937 149.076L47.9954 149.115ZM38.6629 137.075C38.6657 136.253 38.7949 135.526 39.0506 134.894C39.3066 134.262 39.6559 133.732 40.0989 133.301C40.5325 132.871 41.0363 132.546 41.6103 132.327C42.184 132.108 42.7857 131.999 43.4153 132.002C44.0354 132.005 44.6363 132.118 45.2182 132.342C45.7904 132.555 46.3016 132.884 46.7511 133.329C47.1913 133.763 47.5465 134.308 47.8168 134.963C48.0777 135.607 48.2068 136.361 48.2037 137.226C48.2012 138.07 48.0718 138.802 47.816 139.423C47.5603 140.044 47.2156 140.559 46.7821 140.969C46.3485 141.379 45.8496 141.687 45.2851 141.896C44.7114 142.094 44.1097 142.192 43.4801 142.189C42.8131 142.186 42.1886 142.073 41.6067 141.849C41.0158 141.615 40.5046 141.28 40.0738 140.846C39.6338 140.412 39.2879 139.878 39.0363 139.244C38.7846 138.61 38.6604 137.887 38.6629 137.075ZM46.8228 137.189C46.8246 136.609 46.7418 136.118 46.574 135.717C46.3969 135.304 46.1584 134.966 45.8586 134.701C45.5493 134.436 45.1882 134.245 44.7752 134.127C44.3623 133.999 43.9208 133.934 43.4511 133.932C42.9438 133.93 42.483 133.991 42.0695 134.116C41.6556 134.241 41.2979 134.434 40.9963 134.697C40.6947 134.959 40.4636 135.296 40.3024 135.706C40.132 136.106 40.0459 136.581 40.0441 137.129C40.042 137.688 40.1251 138.168 40.2929 138.569C40.4513 138.96 40.6757 139.283 40.9661 139.537C41.2566 139.781 41.6036 139.962 42.0072 140.079C42.411 140.186 42.8572 140.241 43.3456 140.243C44.492 140.248 45.3571 139.988 45.9413 139.463C46.5258 138.938 46.8195 138.18 46.8228 137.189ZM44.1089 122.527C44.1087 122.643 44.1081 122.764 44.1079 122.891C44.1074 123.007 44.1023 123.133 44.0925 123.27L48.081 123.287L48.0748 125.106L38.7731 125.067C38.7644 124.898 38.7557 124.708 38.747 124.498C38.7383 124.276 38.7344 124.055 38.7349 123.833C38.7265 123.612 38.7224 123.406 38.7229 123.216C38.7142 123.016 38.7101 122.858 38.7106 122.742C38.7149 121.392 38.9486 120.365 39.4112 119.66C39.8647 118.955 40.5281 118.605 41.4019 118.608C41.9562 118.611 42.4538 118.766 42.8943 119.074C43.3348 119.381 43.662 119.894 43.8757 120.612L48.1025 116.801L48.0953 118.905L44.1089 122.527ZM40.0641 122.589C40.0636 122.673 40.0633 122.773 40.063 122.89C40.0625 123.006 40.0669 123.127 40.0759 123.253L42.7536 123.265L42.757 122.284C42.7588 121.715 42.6334 121.282 42.3805 120.985C42.1279 120.689 41.7666 120.54 41.2969 120.538C40.8741 120.536 40.5635 120.682 40.3652 120.977C40.1671 121.261 40.0666 121.798 40.0641 122.589ZM40.2516 104.242L40.2416 107.264L48.134 107.296L48.1279 109.115L40.2355 109.083L40.2255 112.104L38.8161 112.098L38.8423 104.236L40.2516 104.242ZM48.1986 87.8112L48.1925 89.63L38.8907 89.5912L38.8969 87.7721L48.1986 87.8112ZM45.7796 73.4537L38.9443 73.4252L38.9504 71.6062L48.2522 71.645L48.2447 73.8753L41.4083 78.4341L48.2296 78.4625L48.2235 80.2816L38.9217 80.2428L38.9292 78.0124L45.7796 73.4537ZM40.4072 57.286L40.3972 60.3073L48.2896 60.3403L48.2834 62.1594L40.3913 62.1263L40.3813 65.1476L38.9719 65.1418L38.9978 57.2803L40.4072 57.286ZM44.3552 48.2695C44.3549 48.3854 44.3544 48.5068 44.3539 48.6333C44.3536 48.7492 44.3485 48.8758 44.3385 49.013L48.327 49.0296L48.3211 50.8487L39.0194 50.8099C39.0106 50.6411 39.0017 50.4512 38.993 50.2402C38.9845 50.0187 38.9804 49.7972 38.9812 49.5758C38.9725 49.3543 38.9684 49.1487 38.9691 48.9589C38.9604 48.7584 38.9563 48.6003 38.9566 48.4844C38.9612 47.1345 39.1946 46.1073 39.6574 45.4027C40.1107 44.698 40.7744 44.3475 41.6482 44.3512C42.2024 44.3535 42.6998 44.5085 43.1406 44.8162C43.581 45.1238 43.9083 45.6366 44.122 46.3546L48.3485 42.5443L48.3416 44.648L44.3552 48.2695ZM40.3101 48.3316C40.3098 48.4162 40.3096 48.5163 40.309 48.6322C40.3088 48.7484 40.3129 48.8695 40.3221 48.9963L42.9996 49.0072L43.003 48.0265C43.0048 47.4572 42.8794 47.0243 42.6268 46.728C42.3741 46.4317 42.0128 46.2825 41.5431 46.2805C41.1203 46.2788 40.8097 46.4251 40.6114 46.7196C40.4131 47.0035 40.3126 47.5409 40.3101 48.3316ZM39.0106 32.1495C39.0135 31.327 39.1426 30.5999 39.3986 29.9682C39.6543 29.3366 40.0036 28.8055 40.4466 28.375C40.8802 27.9445 41.384 27.6197 41.958 27.4006C42.5317 27.1815 43.1334 27.0733 43.763 27.076C44.3831 27.0785 44.984 27.1918 45.5659 27.4157C46.1384 27.6289 46.6493 27.958 47.0988 28.4028C47.539 28.837 47.8942 29.3815 48.1645 30.0365C48.4254 30.6809 48.5545 31.4354 48.5517 32.3001C48.5489 33.1437 48.4195 33.8761 48.1638 34.4972C47.908 35.1183 47.5634 35.6336 47.1298 36.043C46.6962 36.4525 46.1973 36.7615 45.6328 36.97C45.0591 37.168 44.4574 37.2657 43.8278 37.2631C43.1608 37.2603 42.5363 37.1469 41.9547 36.9231C41.3635 36.6886 40.8525 36.3543 40.4218 35.9201C39.9816 35.4859 39.6356 34.9519 39.384 34.3182C39.1326 33.6844 39.0081 32.9615 39.0106 32.1495ZM47.1705 32.2627C47.1726 31.6827 47.0896 31.192 46.9217 30.7906C46.7447 30.3786 46.5061 30.0401 46.2063 29.7752C45.8973 29.5103 45.5362 29.319 45.1231 29.2013C44.7101 29.073 44.2686 29.0079 43.7989 29.0059C43.2915 29.0038 42.831 29.0651 42.4172 29.1899C42.0033 29.3148 41.6456 29.5084 41.344 29.7708C41.0424 30.0331 40.8113 30.3696 40.6501 30.7802C40.4797 31.1802 40.3936 31.6544 40.3918 32.2027C40.39 32.7616 40.4728 33.2418 40.6406 33.6432C40.799 34.0341 41.0235 34.3566 41.314 34.6109C41.6044 34.8547 41.9513 35.0354 42.3552 35.1531C42.7588 35.2602 43.2049 35.3148 43.6935 35.3169C44.8397 35.3216 45.7051 35.0616 46.2893 34.5368C46.8736 34.012 47.1672 33.254 47.1705 32.2627Z" fill="#DDDDDD"/>
<g filter="url(#filter0_d)">
<path d="M352.106 87.5714C363.844 87.5714 373.399 77.4614 373.399 64.9372C373.399 52.413 363.844 42.303 352.106 42.303C340.369 42.303 330.814 52.413 330.814 64.9372C330.814 77.4614 340.369 87.5714 352.106 87.5714Z" stroke="white" stroke-width="4"/>
</g>
<g filter="url(#filter1_d)">
<path d="M221.617 126.975C228.179 126.975 233.498 121.005 233.498 113.641C233.498 106.277 228.179 100.308 221.617 100.308C215.056 100.308 209.737 106.277 209.737 113.641C209.737 121.005 215.056 126.975 221.617 126.975Z" stroke="white" stroke-width="3"/>
</g>
<g filter="url(#filter2_d)">
<path d="M331.034 181.904C335.932 181.904 339.901 177.448 339.901 171.952C339.901 166.456 335.932 162 331.034 162C326.137 162 322.167 166.456 322.167 171.952C322.167 177.448 326.137 181.904 331.034 181.904Z" stroke="white" stroke-width="2"/>
</g>
</g>
<defs>
<filter id="filter0_d" x="324.814" y="40.303" width="54.5854" height="57.2683" filterUnits="userSpaceOnUse" color-interpolation-filters="sRGB">
<feFlood flood-opacity="0" result="BackgroundImageFix"/>
<feColorMatrix in="SourceAlpha" type="matrix" values="0 0 0 0 0 0 0 0 0 0 0 0 0 0 0 0 0 0 127 0"/>
<feOffset dy="4"/>
<feGaussianBlur stdDeviation="2"/>
<feColorMatrix type="matrix" values="0 0 0 0 0 0 0 0 0 0 0 0 0 0 0 0 0 0 0.25 0"/>
<feBlend mode="normal" in2="BackgroundImageFix" result="effect1_dropShadow"/>
<feBlend mode="normal" in="SourceGraphic" in2="effect1_dropShadow" result="shape"/>
</filter>
<filter id="filter1_d" x="204.237" y="98.8075" width="34.7602" height="37.6674" filterUnits="userSpaceOnUse" color-interpolation-filters="sRGB">
<feFlood flood-opacity="0" result="BackgroundImageFix"/>
<feColorMatrix in="SourceAlpha" type="matrix" values="0 0 0 0 0 0 0 0 0 0 0 0 0 0 0 0 0 0 127 0"/>
<feOffset dy="4"/>
<feGaussianBlur stdDeviation="2"/>
<feColorMatrix type="matrix" values="0 0 0 0 0 0 0 0 0 0 0 0 0 0 0 0 0 0 0.25 0"/>
<feBlend mode="normal" in2="BackgroundImageFix" result="effect1_dropShadow"/>
<feBlend mode="normal" in="SourceGraphic" in2="effect1_dropShadow" result="shape"/>
</filter>
<filter id="filter2_d" x="317.167" y="161" width="27.734" height="29.9038" filterUnits="userSpaceOnUse" color-interpolation-filters="sRGB">
<feFlood flood-opacity="0" result="BackgroundImageFix"/>
<feColorMatrix in="SourceAlpha" type="matrix" values="0 0 0 0 0 0 0 0 0 0 0 0 0 0 0 0 0 0 127 0"/>
<feOffset dy="4"/>
<feGaussianBlur stdDeviation="2"/>
<feColorMatrix type="matrix" values="0 0 0 0 0 0 0 0 0 0 0 0 0 0 0 0 0 0 0.25 0"/>
<feBlend mode="normal" in2="BackgroundImageFix" result="effect1_dropShadow"/>
<feBlend mode="normal" in="SourceGraphic" in2="effect1_dropShadow" result="shape"/>
</filter>
<clipPath id="clip0">
<rect width="400" height="218" fill="white"/>
</clipPath>
</defs>
</svg>
