<svg width="1561" height="758" viewBox="0 0 1561 758" fill="none" xmlns="http://www.w3.org/2000/svg">
<g clip-path="url(#clip0)">
<rect width="1561" height="758" fill="white"/>
<path d="M177.42 590.766L149.7 578.721V571.516H186V577.786H162.075L186 588.236V593.296L162.075 604.021H186L186 610.346H149.7V603.141L177.42 590.766ZM186 548.92V555.245H149.7V548.92H186ZM158.445 528.019C159.215 528.019 159.875 527.854 160.425 527.524C160.975 527.157 161.452 526.662 161.855 526.039C162.258 525.415 162.643 524.682 163.01 523.839C163.34 522.959 163.688 521.987 164.055 520.924C164.532 519.604 165.082 518.302 165.705 517.019C166.292 515.699 167.043 514.525 167.96 513.499C168.84 512.435 169.94 511.574 171.26 510.914C172.58 510.254 174.175 509.924 176.045 509.924C178.025 509.924 179.693 510.29 181.05 511.024C182.407 511.72 183.507 512.674 184.35 513.884C185.157 515.094 185.743 516.487 186.11 518.064C186.477 519.64 186.66 521.272 186.66 522.959C186.66 525.379 186.367 527.652 185.78 529.779C185.193 531.869 184.478 533.665 183.635 535.169L177.695 533.519C178.758 532.125 179.638 530.585 180.335 528.899C181.032 527.175 181.38 525.214 181.38 523.014C181.38 520.667 180.977 518.962 180.17 517.899C179.327 516.835 178.208 516.304 176.815 516.304C175.752 516.304 174.853 516.56 174.12 517.074C173.35 517.587 172.708 518.229 172.195 518.999C171.645 519.769 171.205 520.594 170.875 521.474C170.545 522.317 170.27 523.069 170.05 523.729C169.683 524.902 169.243 526.094 168.73 527.304C168.217 528.514 167.557 529.632 166.75 530.659C165.907 531.685 164.862 532.529 163.615 533.189C162.368 533.812 160.81 534.124 158.94 534.124C157.18 534.124 155.695 533.83 154.485 533.244C153.275 532.62 152.303 531.795 151.57 530.769C150.8 529.705 150.25 528.477 149.92 527.084C149.59 525.654 149.425 524.114 149.425 522.464C149.425 520.447 149.627 518.504 150.03 516.634C150.433 514.727 150.928 513.132 151.515 511.849L157.345 513.334C156.905 513.994 156.52 514.709 156.19 515.479C155.86 516.249 155.585 517.055 155.365 517.899C155.145 518.705 154.98 519.53 154.87 520.374C154.723 521.18 154.65 521.95 154.65 522.684C154.65 524.334 154.962 525.635 155.585 526.589C156.208 527.542 157.162 528.019 158.445 528.019ZM157.51 470.709C156.703 471.882 156.062 473.294 155.585 474.944C155.072 476.557 154.815 478.409 154.815 480.499C154.815 482.479 155.127 484.184 155.75 485.614C156.373 487.007 157.253 488.144 158.39 489.024C159.527 489.904 160.902 490.564 162.515 491.004C164.092 491.407 165.852 491.609 167.795 491.609C172.232 491.609 175.587 490.674 177.86 488.804C180.133 486.897 181.27 484.166 181.27 480.609C181.27 478.409 180.94 476.411 180.28 474.614C179.62 472.781 178.813 471.277 177.86 470.104L183.305 468.454C184.185 469.921 184.973 471.699 185.67 473.789C186.33 475.842 186.66 478.171 186.66 480.774C186.66 483.781 186.165 486.384 185.175 488.584C184.185 490.784 182.847 492.617 181.16 494.084C179.473 495.514 177.53 496.577 175.33 497.274C173.093 497.971 170.728 498.319 168.235 498.319C165.632 498.319 163.193 497.934 160.92 497.164C158.647 496.394 156.667 495.257 154.98 493.754C153.257 492.214 151.9 490.326 150.91 488.089C149.92 485.816 149.425 483.176 149.425 480.169C149.425 478.189 149.645 476.209 150.085 474.229C150.488 472.249 151.057 470.544 151.79 469.114L157.51 470.709ZM169.5 437.768V448.768H180.5V432.983H186V455.093H149.7V434.083H155.2V448.768H164V437.768H169.5ZM180.5 413.057V397.932H186V419.382H149.7V413.057H180.5ZM180.5 379.118V363.993H186V385.443H149.7V379.118H180.5ZM186 321.199V328.074L175.44 332.199V345.894L186 349.634L186 356.234L149.7 342.154V336.709L186 321.199ZM170.49 344.134V334.179L157.125 339.404L170.49 344.134ZM176.375 286.663H149.7V280.338H186V288.093L159.38 304.043H186V310.368H149.7V302.613L176.375 286.663ZM169.5 246.75V257.75H180.5V241.965H186V264.075H149.7V243.065H155.2V257.75H164V246.75H169.5ZM149.425 213.336C149.425 210.476 149.92 207.946 150.91 205.746C151.9 203.546 153.257 201.695 154.98 200.191C156.667 198.688 158.628 197.551 160.865 196.781C163.102 196.011 165.448 195.626 167.905 195.626C170.325 195.626 172.672 196.011 174.945 196.781C177.182 197.515 179.18 198.651 180.94 200.191C182.663 201.695 184.057 203.583 185.12 205.856C186.147 208.093 186.66 210.715 186.66 213.721C186.66 216.655 186.165 219.203 185.175 221.366C184.185 223.53 182.847 225.326 181.16 226.756C179.473 228.186 177.53 229.268 175.33 230.001C173.093 230.698 170.747 231.046 168.29 231.046C165.687 231.046 163.248 230.661 160.975 229.891C158.665 229.085 156.667 227.93 154.98 226.426C153.257 224.923 151.9 223.071 150.91 220.871C149.92 218.671 149.425 216.16 149.425 213.336ZM181.27 213.611C181.27 211.595 180.94 209.89 180.28 208.496C179.583 207.066 178.648 205.893 177.475 204.976C176.265 204.06 174.853 203.4 173.24 202.996C171.627 202.556 169.903 202.336 168.07 202.336C166.09 202.336 164.293 202.556 162.68 202.996C161.067 203.436 159.673 204.115 158.5 205.031C157.327 205.948 156.428 207.121 155.805 208.551C155.145 209.945 154.815 211.595 154.815 213.501C154.815 215.445 155.145 217.113 155.805 218.506C156.428 219.863 157.308 220.981 158.445 221.861C159.582 222.705 160.938 223.328 162.515 223.731C164.092 224.098 165.833 224.281 167.74 224.281C172.213 224.281 175.587 223.365 177.86 221.531C180.133 219.698 181.27 217.058 181.27 213.611ZM171.92 175.541C175.257 175.541 177.658 174.771 179.125 173.231C180.555 171.691 181.27 169.546 181.27 166.796C181.27 164.046 180.555 161.901 179.125 160.361C177.658 158.784 175.257 157.996 171.92 157.996H149.7V151.946H173.24C175.037 151.946 176.742 152.239 178.355 152.826C179.968 153.413 181.398 154.329 182.645 155.576C183.855 156.786 184.827 158.363 185.56 160.306C186.257 162.213 186.605 164.486 186.605 167.126C186.605 169.766 186.257 172.021 185.56 173.891C184.827 175.761 183.855 177.301 182.645 178.511C181.398 179.684 179.968 180.546 178.355 181.096C176.742 181.609 175.037 181.866 173.24 181.866H149.7V175.541H171.92ZM158.445 131.482C159.215 131.482 159.875 131.317 160.425 130.987C160.975 130.62 161.452 130.125 161.855 129.502C162.258 128.878 162.643 128.145 163.01 127.302C163.34 126.422 163.688 125.45 164.055 124.387C164.532 123.067 165.082 121.765 165.705 120.482C166.292 119.162 167.043 117.988 167.96 116.962C168.84 115.898 169.94 115.037 171.26 114.377C172.58 113.717 174.175 113.387 176.045 113.387C178.025 113.387 179.693 113.753 181.05 114.487C182.407 115.183 183.507 116.137 184.35 117.347C185.157 118.557 185.743 119.95 186.11 121.527C186.477 123.103 186.66 124.735 186.66 126.422C186.66 128.842 186.367 131.115 185.78 133.242C185.193 135.332 184.478 137.128 183.635 138.632L177.695 136.982C178.758 135.588 179.638 134.048 180.335 132.362C181.032 130.638 181.38 128.677 181.38 126.477C181.38 124.13 180.977 122.425 180.17 121.362C179.327 120.298 178.208 119.767 176.815 119.767C175.752 119.767 174.853 120.023 174.12 120.537C173.35 121.05 172.708 121.692 172.195 122.462C171.645 123.232 171.205 124.057 170.875 124.937C170.545 125.78 170.27 126.532 170.05 127.192C169.683 128.365 169.243 129.557 168.73 130.767C168.217 131.977 167.557 133.095 166.75 134.122C165.907 135.148 164.862 135.992 163.615 136.652C162.368 137.275 160.81 137.587 158.94 137.587C157.18 137.587 155.695 137.293 154.485 136.707C153.275 136.083 152.303 135.258 151.57 134.232C150.8 133.168 150.25 131.94 149.92 130.547C149.59 129.117 149.425 127.577 149.425 125.927C149.425 123.91 149.627 121.967 150.03 120.097C150.433 118.19 150.928 116.595 151.515 115.312L157.345 116.797C156.905 117.457 156.52 118.172 156.19 118.942C155.86 119.712 155.585 120.518 155.365 121.362C155.145 122.168 154.98 122.993 154.87 123.837C154.723 124.643 154.65 125.413 154.65 126.147C154.65 127.797 154.962 129.098 155.585 130.052C156.208 131.005 157.162 131.482 158.445 131.482Z" fill="#DDDDDD"/>
</g>
<defs>
<clipPath id="clip0">
<rect width="1561" height="758" fill="white"/>
</clipPath>
</defs>
</svg>
