<svg width="1561" height="758" viewBox="0 0 1561 758" fill="none" xmlns="http://www.w3.org/2000/svg">
<rect width="1561" height="758" fill="white"/>
<path d="M177.42 602.58L149.7 590.535V583.33H186V589.6H162.075L186 600.05V605.11L162.075 615.835H186V622.16H149.7V614.955L177.42 602.58ZM149.7 562.109V555.014L166.145 545.719L149.7 536.809V529.824L171.095 542.749H186V549.074H171.315L149.7 562.109ZM172.36 470.016C172.36 470.64 172.36 471.263 172.36 471.886C172.36 472.473 172.342 473.041 172.305 473.591H186V479.916H149.7C149.663 479.366 149.627 478.743 149.59 478.046C149.553 477.313 149.535 476.561 149.535 475.791C149.498 474.985 149.48 474.196 149.48 473.426C149.443 472.62 149.425 471.868 149.425 471.171C149.425 469.118 149.682 467.248 150.195 465.561C150.672 463.875 151.405 462.426 152.395 461.216C153.385 460.006 154.613 459.071 156.08 458.411C157.51 457.751 159.178 457.421 161.085 457.421C162.625 457.421 164.073 457.678 165.43 458.191C166.787 458.705 167.978 459.475 169.005 460.501C170.032 461.528 170.857 462.848 171.48 464.461C172.067 466.038 172.36 467.89 172.36 470.016ZM154.705 470.291C154.705 470.878 154.705 471.446 154.705 471.996C154.705 472.546 154.723 473.078 154.76 473.591H167.025C167.062 473.078 167.08 472.546 167.08 471.996C167.08 471.41 167.08 470.805 167.08 470.181C167.08 468.201 166.53 466.716 165.43 465.726C164.33 464.7 162.735 464.186 160.645 464.186C158.885 464.186 157.455 464.645 156.355 465.561C155.255 466.441 154.705 468.018 154.705 470.291ZM149.425 418.083C149.425 415.223 149.92 412.693 150.91 410.493C151.9 408.293 153.257 406.441 154.98 404.938C156.667 403.434 158.628 402.298 160.865 401.528C163.102 400.758 165.448 400.373 167.905 400.373C170.325 400.373 172.672 400.758 174.945 401.528C177.182 402.261 179.18 403.398 180.94 404.938C182.663 406.441 184.057 408.329 185.12 410.603C186.147 412.839 186.66 415.461 186.66 418.468C186.66 421.401 186.165 423.949 185.175 426.113C184.185 428.276 182.847 430.073 181.16 431.503C179.473 432.933 177.53 434.014 175.33 434.748C173.093 435.444 170.747 435.793 168.29 435.793C165.687 435.793 163.248 435.408 160.975 434.638C158.665 433.831 156.667 432.676 154.98 431.173C153.257 429.669 151.9 427.818 150.91 425.618C149.92 423.418 149.425 420.906 149.425 418.083ZM181.27 418.358C181.27 416.341 180.94 414.636 180.28 413.243C179.583 411.813 178.648 410.639 177.475 409.723C176.265 408.806 174.853 408.146 173.24 407.743C171.627 407.303 169.903 407.083 168.07 407.083C166.09 407.083 164.293 407.303 162.68 407.743C161.067 408.183 159.673 408.861 158.5 409.778C157.327 410.694 156.428 411.868 155.805 413.298C155.145 414.691 154.815 416.341 154.815 418.248C154.815 420.191 155.145 421.859 155.805 423.253C156.428 424.609 157.308 425.728 158.445 426.608C159.582 427.451 160.938 428.074 162.515 428.478C164.092 428.844 165.833 429.028 167.74 429.028C172.213 429.028 175.587 428.111 177.86 426.278C180.133 424.444 181.27 421.804 181.27 418.358ZM170.49 366.867C170.49 367.271 170.49 367.692 170.49 368.132C170.49 368.536 170.472 368.976 170.435 369.452H186V375.777H149.7C149.663 375.191 149.627 374.531 149.59 373.797C149.553 373.027 149.535 372.257 149.535 371.487C149.498 370.717 149.48 370.002 149.48 369.342C149.443 368.646 149.425 368.096 149.425 367.692C149.425 362.999 150.323 359.424 152.12 356.967C153.88 354.511 156.465 353.282 159.875 353.282C162.038 353.282 163.982 353.814 165.705 354.877C167.428 355.941 168.712 357.719 169.555 360.212L186 346.902V354.217L170.49 366.867ZM154.705 367.142C154.705 367.436 154.705 367.784 154.705 368.187C154.705 368.591 154.723 369.012 154.76 369.452H165.21V366.042C165.21 364.062 164.715 362.559 163.725 361.532C162.735 360.506 161.323 359.992 159.49 359.992C157.84 359.992 156.63 360.506 155.86 361.532C155.09 362.522 154.705 364.392 154.705 367.142ZM155.2 302.797V313.302H186V319.627H155.2V330.132H149.7V302.797H155.2ZM169.5 263.028V273.423H186V279.748H149.7V259.013H155.2V273.423H164V263.028H169.5ZM149.425 220.654C149.425 217.794 149.92 215.264 150.91 213.064C151.9 210.864 153.257 209.012 154.98 207.509C156.667 206.006 158.628 204.869 160.865 204.099C163.102 203.329 165.448 202.944 167.905 202.944C170.325 202.944 172.672 203.329 174.945 204.099C177.182 204.832 179.18 205.969 180.94 207.509C182.663 209.012 184.057 210.901 185.12 213.174C186.147 215.411 186.66 218.032 186.66 221.039C186.66 223.972 186.165 226.521 185.175 228.684C184.185 230.847 182.847 232.644 181.16 234.074C179.473 235.504 177.53 236.586 175.33 237.319C173.093 238.016 170.747 238.364 168.29 238.364C165.687 238.364 163.248 237.979 160.975 237.209C158.665 236.402 156.667 235.247 154.98 233.744C153.257 232.241 151.9 230.389 150.91 228.189C149.92 225.989 149.425 223.477 149.425 220.654ZM181.27 220.929C181.27 218.912 180.94 217.207 180.28 215.814C179.583 214.384 178.648 213.211 177.475 212.294C176.265 211.377 174.853 210.717 173.24 210.314C171.627 209.874 169.903 209.654 168.07 209.654C166.09 209.654 164.293 209.874 162.68 210.314C161.067 210.754 159.673 211.432 158.5 212.349C157.327 213.266 156.428 214.439 155.805 215.869C155.145 217.262 154.815 218.912 154.815 220.819C154.815 222.762 155.145 224.431 155.805 225.824C156.428 227.181 157.308 228.299 158.445 229.179C159.582 230.022 160.938 230.646 162.515 231.049C164.092 231.416 165.833 231.599 167.74 231.599C172.213 231.599 175.587 230.682 177.86 228.849C180.133 227.016 181.27 224.376 181.27 220.929ZM180.5 172.024L180.5 156.899H186L186 178.349H149.7V172.024H180.5ZM186 127.635V133.96H149.7L149.7 127.635H186ZM149.425 85.339C149.425 82.479 149.92 79.949 150.91 77.749C151.9 75.549 153.257 73.6973 154.98 72.194C156.667 70.6906 158.628 69.554 160.865 68.784C163.102 68.014 165.448 67.629 167.905 67.629C170.325 67.629 172.672 68.014 174.945 68.784C177.182 69.5173 179.18 70.654 180.94 72.194C182.663 73.6973 184.057 75.5856 185.12 77.859C186.147 80.0956 186.66 82.7173 186.66 85.724C186.66 88.6573 186.165 91.2056 185.175 93.369C184.185 95.5323 182.847 97.329 181.16 98.759C179.473 100.189 177.53 101.271 175.33 102.004C173.093 102.701 170.747 103.049 168.29 103.049C165.687 103.049 163.248 102.664 160.975 101.894C158.665 101.087 156.667 99.9323 154.98 98.429C153.257 96.9256 151.9 95.074 150.91 92.874C149.92 90.674 149.425 88.1623 149.425 85.339ZM181.27 85.614C181.27 83.5973 180.94 81.8923 180.28 80.499C179.583 79.069 178.648 77.8956 177.475 76.979C176.265 76.0623 174.853 75.4023 173.24 74.999C171.627 74.559 169.903 74.339 168.07 74.339C166.09 74.339 164.293 74.559 162.68 74.999C161.067 75.439 159.673 76.1173 158.5 77.034C157.327 77.9506 156.428 79.124 155.805 80.554C155.145 81.9473 154.815 83.5973 154.815 85.504C154.815 87.4473 155.145 89.1156 155.805 90.509C156.428 91.8656 157.308 92.984 158.445 93.864C159.582 94.7073 160.938 95.3306 162.515 95.734C164.092 96.1006 165.833 96.284 167.74 96.284C172.213 96.284 175.587 95.3673 177.86 93.534C180.133 91.7006 181.27 89.0606 181.27 85.614Z" fill="#DDDDDD"/>
</svg>
