<svg width="1561" height="758" viewBox="0 0 1561 758" fill="none" xmlns="http://www.w3.org/2000/svg">
<rect width="1561" height="758" fill="white"/>
<path d="M177.42 510.986L149.7 498.941V491.736H186V498.006H162.075L186 508.456V513.516L162.075 524.241H186V530.566H149.7V523.361L177.42 510.986ZM149.7 470.515V463.42L166.145 454.125L149.7 445.215V438.23L171.095 451.155H186V457.48H171.315L149.7 470.515ZM158.445 383.702C159.215 383.702 159.875 383.537 160.425 383.207C160.975 382.84 161.452 382.345 161.855 381.722C162.258 381.099 162.643 380.365 163.01 379.522C163.34 378.642 163.688 377.67 164.055 376.607C164.532 375.287 165.082 373.985 165.705 372.702C166.292 371.382 167.043 370.209 167.96 369.182C168.84 368.119 169.94 367.257 171.26 366.597C172.58 365.937 174.175 365.607 176.045 365.607C178.025 365.607 179.693 365.974 181.05 366.707C182.407 367.404 183.507 368.357 184.35 369.567C185.157 370.777 185.743 372.17 186.11 373.747C186.477 375.324 186.66 376.955 186.66 378.642C186.66 381.062 186.367 383.335 185.78 385.462C185.193 387.552 184.478 389.349 183.635 390.852L177.695 389.202C178.758 387.809 179.638 386.269 180.335 384.582C181.032 382.859 181.38 380.897 181.38 378.697C181.38 376.35 180.977 374.645 180.17 373.582C179.327 372.519 178.208 371.987 176.815 371.987C175.752 371.987 174.853 372.244 174.12 372.757C173.35 373.27 172.708 373.912 172.195 374.682C171.645 375.452 171.205 376.277 170.875 377.157C170.545 378 170.27 378.752 170.05 379.412C169.683 380.585 169.243 381.777 168.73 382.987C168.217 384.197 167.557 385.315 166.75 386.342C165.907 387.369 164.862 388.212 163.615 388.872C162.368 389.495 160.81 389.807 158.94 389.807C157.18 389.807 155.695 389.514 154.485 388.927C153.275 388.304 152.303 387.479 151.57 386.452C150.8 385.389 150.25 384.16 149.92 382.767C149.59 381.337 149.425 379.797 149.425 378.147C149.425 376.13 149.627 374.187 150.03 372.317C150.433 370.41 150.928 368.815 151.515 367.532L157.345 369.017C156.905 369.677 156.52 370.392 156.19 371.162C155.86 371.932 155.585 372.739 155.365 373.582C155.145 374.389 154.98 375.214 154.87 376.057C154.723 376.864 154.65 377.634 154.65 378.367C154.65 380.017 154.962 381.319 155.585 382.272C156.208 383.225 157.162 383.702 158.445 383.702ZM186 335.137V341.462H149.7V335.137H165.54C163.56 333.047 161.635 331.177 159.765 329.527C158.005 327.987 156.3 326.594 154.65 325.347C152.963 324.101 151.313 323.019 149.7 322.102V315.172C151.9 316.786 153.917 318.326 155.75 319.792C157.583 321.259 159.49 322.872 161.47 324.632C162.203 325.292 162.955 325.971 163.725 326.667C164.495 327.364 165.265 328.079 166.035 328.812L186 312.587V319.902L170.105 332.827L172.25 335.137H186ZM186 284.572V290.897H149.7V284.572H186ZM180.5 251.516V236.391H186V257.841H149.7V251.516H180.5ZM180.5 207.127V192.002H186V213.452H149.7V207.127H180.5ZM158.445 164.443C159.215 164.443 159.875 164.278 160.425 163.948C160.975 163.581 161.452 163.086 161.855 162.463C162.258 161.84 162.643 161.106 163.01 160.263C163.34 159.383 163.688 158.411 164.055 157.348C164.532 156.028 165.082 154.726 165.705 153.443C166.292 152.123 167.043 150.95 167.96 149.923C168.84 148.86 169.94 147.998 171.26 147.338C172.58 146.678 174.175 146.348 176.045 146.348C178.025 146.348 179.693 146.715 181.05 147.448C182.407 148.145 183.507 149.098 184.35 150.308C185.157 151.518 185.743 152.911 186.11 154.488C186.477 156.065 186.66 157.696 186.66 159.383C186.66 161.803 186.367 164.076 185.78 166.203C185.193 168.293 184.478 170.09 183.635 171.593L177.695 169.943C178.758 168.55 179.638 167.01 180.335 165.323C181.032 163.6 181.38 161.638 181.38 159.438C181.38 157.091 180.977 155.386 180.17 154.323C179.327 153.26 178.208 152.728 176.815 152.728C175.752 152.728 174.853 152.985 174.12 153.498C173.35 154.011 172.708 154.653 172.195 155.423C171.645 156.193 171.205 157.018 170.875 157.898C170.545 158.741 170.27 159.493 170.05 160.153C169.683 161.326 169.243 162.518 168.73 163.728C168.217 164.938 167.557 166.056 166.75 167.083C165.907 168.11 164.862 168.953 163.615 169.613C162.368 170.236 160.81 170.548 158.94 170.548C157.18 170.548 155.695 170.255 154.485 169.668C153.275 169.045 152.303 168.22 151.57 167.193C150.8 166.13 150.25 164.901 149.92 163.508C149.59 162.078 149.425 160.538 149.425 158.888C149.425 156.871 149.627 154.928 150.03 153.058C150.433 151.151 150.928 149.556 151.515 148.273L157.345 149.758C156.905 150.418 156.52 151.133 156.19 151.903C155.86 152.673 155.585 153.48 155.365 154.323C155.145 155.13 154.98 155.955 154.87 156.798C154.723 157.605 154.65 158.375 154.65 159.108C154.65 160.758 154.962 162.06 155.585 163.013C156.208 163.966 157.162 164.443 158.445 164.443Z" fill="#DDDDDD"/>
</svg>
